<svg xmlns="http://www.w3.org/2000/svg" viewBox="0 0 32 32" id="Article"><path d="M5,15h8a1,1,0,0,0,1-1V6a1,1,0,0,0-1-1H5A1,1,0,0,0,4,6v8A1,1,0,0,0,5,15ZM6,7h6v6H6ZM16,6a1,1,0,0,1,1-1H27a1,1,0,0,1,0,2H17A1,1,0,0,1,16,6Zm12,4a1,1,0,0,1-1,1H17a1,1,0,0,1,0-2H27A1,1,0,0,1,28,10Zm0,4a1,1,0,0,1-1,1H17a1,1,0,0,1,0-2H27A1,1,0,0,1,28,14Zm0,4a1,1,0,0,1-1,1H5a1,1,0,0,1,0-2H27A1,1,0,0,1,28,18Zm0,4a1,1,0,0,1-1,1H5a1,1,0,0,1,0-2H27A1,1,0,0,1,28,22Zm0,4a1,1,0,0,1-1,1H5a1,1,0,0,1,0-2H27A1,1,0,0,1,28,26Z" fill="#e16745" class="color000000 svgShape"></path></svg>