<svg xmlns="http://www.w3.org/2000/svg" viewBox="0 0 32 32" id="connection"><path d="M7 15a3 3 0 1 0-3-3 3 3 0 0 0 3 3zm0-4a1 1 0 1 1-1 1 1 1 0 0 1 1-1zm15 1a3 3 0 1 0 3-3 3 3 0 0 0-3 3zm3-1a1 1 0 1 1-1 1 1 1 0 0 1 1-1zM10.26 7.82a10 10 0 0 1 11.49 0 1 1 0 0 0 1.15-1.64 12 12 0 0 0-13.79 0 1 1 0 1 0 1.15 1.63zm11.48 15.36a10 10 0 0 1-11.49 0 1 1 0 1 0-1.15 1.64 12 12 0 0 0 13.79 0 1 1 0 1 0-1.15-1.63zM12 21v-.73A4.27 4.27 0 0 0 7.73 16H6.27A4.27 4.27 0 0 0 2 20.27V21a1 1 0 0 0 1 1h8a1 1 0 0 0 1-1zm-8-1a2.27 2.27 0 0 1 2.25-2h1.48A2.27 2.27 0 0 1 10 20zm21.73-4h-1.46A4.27 4.27 0 0 0 20 20.27V21a1 1 0 0 0 1 1h8a1 1 0 0 0 1-1v-.73A4.27 4.27 0 0 0 25.73 16zM22 20a2.27 2.27 0 0 1 2.25-2h1.47A2.27 2.27 0 0 1 28 20z"></path></svg>