<svg xmlns="http://www.w3.org/2000/svg" enable-background="new 0 0 24 24" viewBox="0 0 24 24" id="network"><circle cx="12" cy="3.5" r="2" fill="none" stroke="#303c42" stroke-linecap="round" stroke-linejoin="round"></circle><path fill="none" stroke="#303c42" stroke-linecap="round" stroke-linejoin="round" d="M12,7c-1.1,0.1-2.2,0.4-3.2,1C8.3,8.3,8,8.9,8,9.5v0.3c0,0.3,0.2,0.6,0.6,0.7h6.9     c0.3,0,0.6-0.3,0.6-0.7V9.5c0-0.6-0.3-1.2-0.8-1.5C14.2,7.4,13.1,7.1,12,7z"></path><circle cx="5.5" cy="15.5" r="2" fill="none" stroke="#303c42" stroke-linecap="round" stroke-linejoin="round"></circle><path fill="none" stroke="#303c42" stroke-linecap="round" stroke-linejoin="round" d="M5.5,19c-1.1,0.1-2.2,0.4-3.2,1c-0.5,0.3-0.8,0.9-0.8,1.6v0.3c0,0.3,0.2,0.6,0.6,0.7h6.9     c0.3,0,0.6-0.3,0.6-0.7v-0.3c0-0.6-0.3-1.2-0.8-1.6C7.7,19.4,6.6,19.1,5.5,19z"></path><circle cx="18.5" cy="15.5" r="2" fill="none" stroke="#303c42" stroke-linecap="round" stroke-linejoin="round"></circle><path fill="none" stroke="#303c42" stroke-linecap="round" stroke-linejoin="round" d="M18.5,19c-1.1,0.1-2.2,0.4-3.2,1c-0.5,0.3-0.8,0.9-0.8,1.6v0.3c0,0.3,0.2,0.6,0.6,0.7h6.9     c0.3,0,0.6-0.3,0.6-0.7v-0.3c0-0.6-0.3-1.2-0.8-1.6C20.7,19.4,19.6,19.1,18.5,19z"></path><polyline fill="none" stroke="#303c42" stroke-linecap="round" stroke-linejoin="round" points="12 12.5 12 15.5 9.5 17.5"></polyline><line x1="12" x2="14.5" y1="15.5" y2="17.5" fill="none" stroke="#303c42" stroke-linecap="round" stroke-linejoin="round"></line></svg>